<svg xlink="http://www.w3.org/1999/xlink" width="3000" height="2103.840087890625" transform="scale(1.3)" xmlns="http://www.w3.org/2000/svg"><title>20180413003</title><path d="M2998.89,461.85,2825.72,229.57l-235.07,1.1L2515,129H2110.95V0H889.06V129h-397L416.45,230.66l-232.89-1.07L0,460.06V1035.51l162.58,545.79,744,522.56H2108.15L2847,1595.25l153-569.52Z" style="fill: rgb(221, 221, 221);" data-spm-anchor-id="a2o7u.seatMake.0.i2.29d0368b7NP5RE"></path><path d="M2053.55,261.19H955.93V65.14H2053.56Z" style="stroke-miterlimit: 10; fill: rgb(255, 255, 255);" stroke="rgb(0, 0, 0)" data-spm-anchor-id="a2o7u.seatMake.0.i3.29d0368b7NP5RE"></path><path d="M1496.09,150.15v9.42h-87.52l8.32,2.36c-1.11,2.23-2.48,4.46-3.84,6.69h16.36l1.86-.37,6.45,3.22c-7.45,23.31-24.43,36.45-44.37,43.14a42.16,42.16,0,0,0-6.83-8.69,68.83,68.82,0,0,0,22.18-10.28,77.73,77.74,0,0,0-10.29-8.69l6.94-5.22a123.94,123.94,0,0,1,10.16,7.93,45.92,45.92,0,0,0,8.93-12.52h-18.34a75.79,75.79,0,0,1-15.74,12.64,57.43,57.44,0,0,0-7.32-7.18c10-5.22,19.08-13.39,23.93-23.05h-22.07v-9.42h19.22V139.48h-12.64v-9.54h12.64V120a87.45,87.45,0,0,1-10.91,8.93,31.86,31.87,0,0,0-8.44-6.82,67.37,67.36,0,0,0,22.43-21.68l11.28,2.23c-1.49,2.36-3.22,4.59-5,6.94h75.86V119H1479v10.91h13v9.55h-13v10.66Zm-81.31-20.22h11.17V119h-11.17Zm0,20.22h11.16V139.49h-11.17Zm32.36-20.21V119h-11.41v10.92Zm-11.41,9.54v10.67h11.42V139.49ZM1475.65,191h20v9h-20v14.13h-10.92V200.08H1437c1.61-5.33,3.47-13.14,4.71-19.47l10.66,1c-.5,3-1.24,6.32-1.86,9.42h14.25V178.16h-25v-9.31h25v-7.31h10.92v7.31h16.86v9.32h-16.86Zm-7.44-72h-11.28v10.91h11.28Zm0,20.46h-11.28v10.67h11.28Z"></path><path d="M1584.36,113.34c11.66,10.53,26.15,25.79,32.62,35.95l-9.67,7.18a99,99,0,0,0-7.18-10.16c-68.18,3.59-76.11,3.84-81.69,5.83a106.92,106.92,0,0,0-3.72-11.29c3-.5,6.08-3.1,10.17-7.07,4.34-4.09,18.35-19.35,27.39-34.33l11.54,5a244,244,0,0,1-29.63,34.22l57.64-2.36c-5.33-6-11-11.92-16.36-16.87ZM1524,161.55h80.32v52.56H1592v-6.33h-56.39v6.57H1524Zm11.66,11v24H1592v-24Z"></path><path d="M892.52,344.64h320.31v995.47H958.67l-262.22-265V450.95Z" style="stroke-miterlimit: 10; fill: rgb(255, 255, 255);" stroke="rgb(0, 0, 0)" data-spm-anchor-id="a2o7u.seatMake.0.i1.29d0368b7NP5RE" floorId = "2853579" ></path><path d="M1762.33,344.65v995.47H1254.24V344.65Z" style="stroke-miterlimit: 10; fill: rgb(255, 255, 255);" stroke="rgb(0, 0, 0)" data-spm-anchor-id="a2o7u.seatMake.0.i13.29d0368b7NP5RE" floorId = "2853577" ></path><path d="M2320.12,450.95V1075.11l-262.23,265H1803.75V344.64h320.32Z" style="stroke-miterlimit: 10; fill: rgb(255, 255, 255);" stroke="rgb(0, 0, 0)" data-spm-anchor-id="a2o7u.seatMake.0.i9.29d0368b7NP5RE" floorId = "2853578" ></path><path d="M2402.95,482.71V194.16h85.61l132.55,169.26V482.72Z" style="stroke-miterlimit: 10; fill: rgb(255, 255, 255);" stroke="rgb(0, 0, 0)" data-spm-anchor-id="a2o7u.seatMake.0.i24.28d0368b7NP5RE" floorId = "2853588" ></path><path d="M2178.28,1346.87l225.65-299.31h217.17l-261.85,431.87Z" style="stroke-miterlimit: 10; fill: rgb(255, 255, 255);" stroke="rgb(0, 0, 0)" data-spm-anchor-id="a2o7u.seatMake.0.i22.28d0368b7NP5RE" floorId = "2853586" ></path><path d="M2402.95,1004.59V524.13h218.15v480.47Z" style="stroke-miterlimit: 10; fill: rgb(255, 255, 255);" stroke="rgb(0, 0, 0)" data-spm-anchor-id="a2o7u.seatMake.0.i23.28d0368b7NP5RE" floorId = "2853587" ></path><path d="M1762.33,1493.27v208.58H1254.24V1495Z" style="stroke-miterlimit: 10; fill: rgb(255, 255, 255);" stroke="rgb(0, 0, 0)" data-spm-anchor-id="a2o7u.seatMake.0.i20.29d0368b7NP5RE" floorId = "2853584" ></path><path d="M2333.39,1511.79l-390.91,190H1803.75V1493.13l136.68-.46h.46l147-69.73,69.91-49.48Z" style="stroke-miterlimit: 10; fill: rgb(255, 255, 255);" stroke="rgb(0, 0, 0)" data-spm-anchor-id="a2o7u.seatMake.0.i21.28d0368b7NP5RE" floorId = "2853585" ></path><path d="M838.28,1333.32l-173.41,144.81L395.25,1060.62l217.83.35Z" style="stroke-miterlimit: 10; fill: rgb(255, 255, 255);" stroke="rgb(0, 0, 0)" data-spm-anchor-id="a2o7u.seatMake.0.i18.28d0368b7NP5RE" floorId = "2853582" ></path><path d="M1212.83,1495.13v206.71H1060.25L694.81,1507.08l170.81-143.69,258.47,132Z" style="stroke-miterlimit: 10; fill: rgb(255, 255, 255);" stroke="rgb(0, 0, 0)" data-spm-anchor-id="a2o7u.seatMake.0.i19.28d0368b7NP5RE" floorId = "2853583" ></path><path d="M395.47,482.72V363.39L528,194.16h85.61V482.72Z" style="stroke-miterlimit: 10; fill: rgb(255, 255, 255);" stroke="rgb(0, 0, 0)" data-spm-anchor-id="a2o7u.seatMake.0.i16.29d0368b7NP5RE" floorId = "2853580" ></path><path d="M395.48,1019.09v-495H613.61v495Z" style="stroke-miterlimit: 10; fill: rgb(255, 255, 255);" stroke="rgb(0, 0, 0)" data-spm-anchor-id="a2o7u.seatMake.0.i17.28d0368b7NP5RE" floorId = "2853581" ></path><path d="M2703.93,851.35V296.73l1.38-1.11,93.18-.69,134.62,189.85V851.35Z" style="stroke-miterlimit: 10; fill: rgb(255, 255, 255);" stroke="rgb(0, 0, 0)" data-spm-anchor-id="a2o7u.seatMake.0.i25.28d0368b7NP5RE" floorId = "2853589" ></path><path d="M66.88,851.34V484.77L218.06,294.93l93.19.69,1.38,1.11V851.35Z" style="stroke-miterlimit: 10; fill: rgb(255, 255, 255);" stroke="rgb(0, 0, 0)" data-spm-anchor-id="a2o7u.seatMake.0.i32.29d0368b7NP5RE" floorId = "2853596" ></path><path d="M1009.87,2038.71H929.79L305.52,1618.58l133.26-206.73,571.13,357Z" style="stroke-miterlimit: 10; fill: rgb(255, 255, 255);" stroke="rgb(0, 0, 0)" data-spm-anchor-id="a2o7u.seatMake.0.i30.29d0368b7NP5RE" floorId = "2853594" ></path><path d="M273.44,1591.86l-51.94-43.29L66.88,1029.45V892.77H316.72l99,478.12Z" style="stroke-miterlimit: 10; fill: rgb(255, 255, 255);" stroke="rgb(0, 0, 0)" data-spm-anchor-id="a2o7u.seatMake.0.i31.28d0368b7NP5RE" floorId = "2853595" ></path><path d="M1968,2038.72H1523.48v-254h439.75l4.83-2.58Z" style="stroke-miterlimit: 10; fill: rgb(255, 255, 255);" stroke="rgb(0, 0, 0)" data-spm-anchor-id="a2o7u.seatMake.0.i28.28d0368b7NP5RE" floorId = "2853592" ></path><path d="M1482,2038.72H1051.29v-254H1482Z" style="stroke-miterlimit: 10; fill: rgb(255, 255, 255);" stroke="rgb(0, 0, 0)" data-spm-anchor-id="a2o7u.seatMake.0.i29.28d0368b7NP5RE" floorId = "2853593" ></path><path d="M2933.14,892.77v148.83l-135.32,518-65.64,44-117.41-246.82,89.16-464.06Z" style="stroke-miterlimit: 10; fill: rgb(255, 255, 255);" stroke="rgb(0, 0, 0)" data-spm-anchor-id="a2o7u.seatMake.0.i26.28d0368b7NP5RE" floorId = "2853590" ></path><path d="M2697.42,1627l-75.63,50.71-528.11,361h-84.23V1760l591.08-337.28Z" style="stroke-miterlimit: 10; fill: rgb(255, 255, 255);" stroke="rgb(0, 0, 0)" data-spm-anchor-id="a2o7u.seatMake.0.i27.28d0368b7NP5RE" floorId = "2853591" ></path><text text-anchor="middle" x="954.635009765625" y="842.3700561523438" style="font-size:40px; " id="1010022"></text><text text-anchor="middle" x="1508.2799682617188" y="842.3700561523438" style="font-size:40px; " id="1010018"></text><text text-anchor="middle" x="2061.925048828125" y="842.3699951171875" style="font-size:40px; " id="1010020"></text><text text-anchor="middle" x="2512.02001953125" y="338.4250030517578" style="font-size:40px; " id="1010040"></text><text text-anchor="middle" x="2399.6849365234375" y="1263.4900512695312" style="font-size:40px; " id="1010036"></text><text text-anchor="middle" x="2512.0198974609375" y="764.3550109863281" style="font-size:40px; " id="1010038"></text><text text-anchor="middle" x="1508.2799682617188" y="1597.5450439453125" style="font-size:40px; " id="1010032"></text><text text-anchor="middle" x="2068.56494140625" y="1537.6250610351562" style="font-size:40px; " id="1010034"></text><text text-anchor="middle" x="616.760009765625" y="1269.3599853515625" style="font-size:40px; " id="1010028"></text><text text-anchor="middle" x="953.8149719238281" y="1532.6149291992188" style="font-size:40px; " id="1010030"></text><text text-anchor="middle" x="504.5349884033203" y="338.4250030517578" style="font-size:40px; " id="1010024"></text><text text-anchor="middle" x="504.5399932861328" y="771.5900268554688" style="font-size:40px; " id="1010026"></text><text text-anchor="middle" x="2818.5198974609375" y="573.1350402832031" style="font-size:40px; " id="1010042"></text><text text-anchor="middle" x="189.74500274658203" y="573.135009765625" style="font-size:40px; " id="1010056"></text><text text-anchor="middle" x="657.6849975585938" y="1725.2799682617188" style="font-size:40px; " id="1010052"></text><text text-anchor="middle" x="241.29000091552734" y="1242.3049926757812" style="font-size:40px; " id="1010054"></text><text text-anchor="middle" x="1745.7599487304688" y="1910.4199829101562" style="font-size:40px; " id="1010048"></text><text text-anchor="middle" x="1266.6400146484375" y="1911.7099609375" style="font-size:40px; " id="1010050"></text><text text-anchor="middle" x="2773.9549560546875" y="1248.1499938964844" style="font-size:40px; " id="1010044"></text><text text-anchor="middle" x="2353.4298095703125" y="1730.7149658203125" style="font-size:40px; " id="1010046"></text></svg>